<svg xmlns="http://www.w3.org/2000/svg" viewBox="0 0 34 34">
  <path fill="#bd483b" d="m16.8.3-3 11v11.2l3 11.2L20 22.5V11.4z" />
  <path fill="#e64e3d" stroke="#000" stroke-width="1.1" d="M16.8.3 1.4 6l2.2 20.5 13.2 7.3" />
  <path fill="#bd483b" stroke="#000" stroke-width="1.1" d="m16.8 33.7 13.3-7.4 2.5-20.5L16.8.3" />
  <path fill="#fec82f" d="M14 25a9.4 9.4 0 0 1-4-2.3 9.3 9.3 0 0 1-2.2-3.9l.8.7a8.6 8.6 0 0 0 1.7 1l.6.1h.1a1.7 1.7 0 0 0 1.4 1.6c.3 1.1.8 2.1 1.6 2.9zm.6-13.2c0 .3 0 .6.2.9a14.5 14.5 0 0 0-2.5 6.1c-.5.1-.8.4-1 .8h-.1a7.2 7.2 0 0 1-2.8-1.7 6.8 6.8 0 0 1-.4-.4l-.1-.2h-.1V17h-.1a4 4 0 0 1-.2-.3A9.3 9.3 0 0 1 9.7 10 9.4 9.4 0 0 1 14 7.2a11.4 11.4 0 0 0 1 3.5c-.2.3-.4.7-.4 1zm-1 8.7a.9.9 0 0 1-.3.7.9.9 0 0 1-1 0 1 1 0 0 1-.4-.3.9.9 0 0 1-.1-.4.9.9 0 0 1 .4-.8.9.9 0 0 1 1.3.3.9.9 0 0 1 .1.5zm3.6-8.7a.9.9 0 0 1-.9.9h-.1a.9.9 0 0 1 .1-1.8 1 1 0 0 1 1 .9z" />
  <path fill="#df9c26" d="M26.2 16.1c0 1-.1 1.8-.4 2.7a12.8 12.8 0 0 1-2.4-1 1.7 1.7 0 0 0 0-1 15 15 0 0 0 2.4-3.2 9.4 9.4 0 0 1 .4 2.5zm-.9-3.9a11.3 11.3 0 0 1-.2.4 13.8 13.8 0 0 1-2.5 3.4 1.7 1.7 0 0 0-1.9.1 16.8 16.8 0 0 1-1.4-1.3 16.7 16.7 0 0 1-1.7-2 1.7 1.7 0 0 0 .2-1.9 16 16 0 0 1 3.9-2.8 9.4 9.4 0 0 1 3.6 4.1zm-2.7 5.3a.9.9 0 0 1-1.8 0 1 1 0 0 1 1.2-.9 1 1 0 0 1 .6.9zm.3 1.3a1.7 1.7 0 0 1-2.1.1h-.1a13.7 13.7 0 0 1-3.9 1.8v4.8a9.4 9.4 0 0 0 8.7-5.7 14 14 0 0 1-2.6-1z" />
  <path fill="#fec82f" d="M16.8 20.7a11.7 11.7 0 0 1-2.4.4h-.1c-.1.4-.5.7-.8.9.2 1 .7 1.7 1.3 2.3a5 5 0 0 0 1.9 1.2h.1v-4.8z" />
  <path fill="#df9c26" d="m20 17.5.1-.5a18 18 0 0 1-3.3-3.4v6a12.9 12.9 0 0 0 3.3-1.5 1.7 1.7 0 0 1 0-.6z" />
  <path fill="#fec82f" d="m16.8 13.6-.1-.1a1.7 1.7 0 0 1-1-.1 13.4 13.4 0 0 0-2.4 5.5c.5.2.9.6 1 1 .9 0 1.7 0 2.5-.3v-6z" />
  <path fill="#df9c26" d="M16.8 6.8v3.4h.2a17.2 17.2 0 0 1 3.5-2.7 9.3 9.3 0 0 0-3.7-.7z" />
  <path fill="#fec82f" d="m16.8 6.8-1.8.1.1.7c.2.8.5 1.7.9 2.5a1.7 1.7 0 0 1 .8 0V6.9z" />
</svg>
