<svg xmlns="http://www.w3.org/2000/svg" preserveAspectRatio="xMidYMid" viewBox="-21 0 298 298">
  <path fill="#FEEA5F" stroke="#222" stroke-width="15" d="m210.741 74.865-82.858 47.877L44.959 74.88l82.915-47.886z" />
  <path fill="#E0CC41" stroke="#222" stroke-width="15" d="m104.25 258.24-82.239-47.465v-95.653l82.239 47.447z" />
  <path fill="#EFDB50" stroke="#222" stroke-width="15" d="m150.051 161.649 84.853-48.988v99.186l-84.853 48.971z" />
  <path fill="#C3C2C2" d="m50.435 74.879 77.446 44.7 77.384-44.714-77.393-44.708-77.437 44.722ZM127.658 0l128.33 74.699-61.239 48.043-67.764 25.904-63.565-20.762L0 74.69 127.658 0Z" />
  <path fill="#B3B3B3" d="m154.24 253.505 76.476-44.137v-89.394l-76.477 44.152v89.379Zm-27.311-104.859 129.059-73.778v149.337l-129.06 73.707-6.546-73.707 6.547-75.559Z" />
  <path fill="#A5A5A4" d="m101.559 164.147-76.857-44.342v89.393l76.857 44.358v-89.41ZM0 74.867l126.985 73.78-.056 149.264L0 224.77V74.868Z" />
</svg>
