<svg xmlns="http://www.w3.org/2000/svg" viewBox="-50 -50 1450 1450">
	<path stroke="#e0e0e0" stroke-width="40" d="M1338 1266a89 89 0 0 1-87 73H107a90 90 0 0 1-88-91V110a91 91 0 0 1 88-91h1144a90 90 0 0 1 88 92v1127l-1 28z"/>
	<path fill="#242424" d="M1338 1266a90 90 0 0 1-87 73H107a90 90 0 0 1-88-91V110a91 91 0 0 1 88-91h1144a90 90 0 0 1 88 92v1127l-1 28z"/>

	<path alt="c" stroke="white" stroke-width="10" fill="#fff" d="M530 406c-7 32-22 58-48 78-25 18-53 25-83 21-36-4-65-21-87-50-12-16-20-34-24-53-6-30-6-59 1-88a124 124 0 0 1 92-96c25-6 50-6 75 2 28 8 49 26 62 52l9 27c1 4 0 5-4 5-11 0-11 0-14-11a87 87 0 0 0-67-61c-28-6-54-4-79 10-29 15-46 39-55 69-10 34-10 67 1 101 9 26 23 47 47 62 16 10 34 15 53 16 23 2 43-4 62-17 25-19 40-45 44-76 0-5 1-7 7-6h11l-3 15z"/>
	<path alt="p" stroke="white" stroke-width="10" fill="#fff" d="M611 499h-13V220h5l109 1c16 0 31 1 45 7 19 8 31 23 37 43 4 17 5 34 1 50-7 26-24 42-49 49-12 4-25 5-38 5h-93v119c0 3 0 6-4 5m139-256-10-4c-9-2-19-4-28-4h-97v125h106c28-1 51-18 57-47 5-25-1-55-28-70z"/>
	<path alt="u" stroke="white" stroke-width="10" fill="#fff" d="M880 411c2 16 6 31 14 44 10 17 25 28 44 33 20 5 41 4 61-1 31-9 48-30 54-60 2-13 4-27 4-40V221h17v165c0 18-2 36-7 54a87 87 0 0 1-74 63c-21 4-43 4-64-2-30-8-50-27-60-56-6-18-8-35-8-53V221h17v170l2 20z"/>

	<path fill="#e0e0e0" d="M1250 1309H111c-36 0-62-26-62-63V679h1260v569c0 34-25 60-59 61"/>
	<path alt="r"   stroke="black" stroke-width="5" fill="#000" d="
		M732 857c28 9 44 30 46 60 0 16-2 32-11 46a66 66 0 0 1-44 30l-5 1 18 4c21 8 32 24 35 45l3 45 2 28 5 13h-12c-6 1-9-2-9-6l-4-33c-1-14 0-29-2-43-3-24-18-39-42-43l-25-2h-96v127h-17V850h114c15 1 30 2 44 7
		M597 987h99c14 0 27-3 39-11 17-11 24-28 25-48 2-29-13-51-41-59l-33-4h-95v122h6z"/>
	<path alt="p o" stroke="black" stroke-width="5" fill="#000" d="
		M860 1080c-18-29-25-60-24-93 0-31 7-60 24-86 20-31 49-50 86-55 22-3 43-2 64 4 23 7 42 20 57 38 22 27 31 57 33 91 2 36-4 69-24 100-16 26-40 43-69 52-32 8-63 7-93-6-22-9-40-24-54-45
		m48 24c28 17 57 21 87 14 38-9 63-33 77-68 14-36 15-73 4-110-8-25-22-46-43-61-18-13-39-19-61-20-20-1-39 3-56 12-28 15-45 38-55 67-9 27-11 54-5 82 6 35 22 64 52 84z
		m-600-45V850h6l109 1c15 0 31 1 45 7 25 12 37 33 39 60 1 15 0 30-6 45a67 67 0 0 1-51 39l-30 3h-95v124h-17v-70
		m140-72c17-6 30-16 37-33 6-15 7-31 2-47-6-20-19-34-40-39-8-2-17-3-26-3h-96v125h98l25-3z"/>
</svg>
