<svg xmlns="http://www.w3.org/2000/svg" xmlns:xlink="http://www.w3.org/1999/xlink" viewBox="2.5 0.1 187 187"><path fill="none" d="M0 0h192v192H0z"/><defs><path id="a" d="m184 32-16 28-4.5 8h-10.9L139 94a44.1 44.1 0 0 1-28.4 51.5L96 172l-14.6-26.5-1.4-.5A44.2 44.2 0 0 1 53 94L39.4 68H28.6L24 60 8 32h46l7.5 14.9.4.2.1-.2a34 34 0 0 1 67.8 0l-.2.2V47L138 32h46z"/></defs><clipPath id="b"><use xlink:href="#a" overflow="visible"/></clipPath><g clip-path="url(#b)"><path fill="#9e9e9e" d="m155.5 59-4.3 9h12.2l.6-1 4.5-8h-13.1zM36.3 59H23.5l5.1 9h12l-4.3-9z"/><path fill="#424242" d="m184 32-16 28h-11.2l-18 34L96 172 53.1 94 35.2 60H24L8 32h46l7.5 14.9 24.4 44.5 10 18.3 9.6-18.3 24-44.5L138 32"/><g fill-opacity=".2"><path fill="#fff" d="M54.6 33h-46L8 32h46l.6 1zm83.4-1-.6 1h46l.6-1h-46z"/><path fill="#263238" d="m164 67-.5 1h-10.9l-13.7 26L96 172 53.1 94 39.4 68H28.6l-.6-1h11.4l.6 1L53 93 96 171l42.9-78L152 68l.5-1"/></g></g><g clip-path="url(#b)"><path fill="#fff" d="M113 104a17 17 0 1 1-34 0 17 17 0 0 1 34 0zm-2-52a15 15 0 1 1-30 0 15 15 0 0 1 30 0z"/><path fill="#4285f4" d="M138.9 94a44 44 0 0 0-15.2-24.2 34 34 0 1 0-55.4 0A44 44 0 1 0 139 94zM96 38a14 14 0 1 1 0 28 14 14 0 0 1 0-28zm0 82a16 16 0 1 1 0-32 16 16 0 0 1 0 32z"/><g fill-opacity=".2"><path fill="#fff" d="M130 50v.5a34 34 0 0 0-68 0V50a34 34 0 1 1 68 0zM67.9 70.2A43.9 43.9 0 0 0 52 104v.5a44 44 0 0 1 16.3-33.7l.5-.4-.5-.6-.4.4zm56.2 0-.4-.4-.5.6.5.4a44 44 0 0 1 16.3 33.7v-.5c0-13.6-6.2-25.8-15.9-33.8z"/><path fill="#263238" d="M140 103.5v.5a44 44 0 0 1-88 0v-.5a44 44 0 0 0 88 0zm-78-54v.5c0 7.7 2.5 14.7 6.8 20.4l.5-.4A33.9 33.9 0 0 1 62 49.5zm68 0a33.9 33.9 0 0 1-7.3 20.5l.5.4A33.6 33.6 0 0 0 130 50v-.5z"/></g></g><radialGradient id="c" cx="10.3" cy="33.8" r="185.4" gradientUnits="userSpaceOnUse"><stop offset="0" stop-color="#FFF" stop-opacity=".1"/><stop offset="1" stop-color="#FFF" stop-opacity="0"/></radialGradient><path fill="url(#c)" d="m184 32-16 28-4.5 8h-10.9l-13.7 26a44.1 44.1 0 0 1-28.4 51.5L96 172l-14.6-26.5-1.4-.5A44.2 44.2 0 0 1 53 94L39.4 68H28.6L24 60 8 32h46l7.5 14.9.4.2.1-.2a34 34 0 0 1 67.8 0l-.2.2V47L138 32h46z"/></svg>
