<svg xmlns="http://www.w3.org/2000/svg" viewBox="0 0 256 256">
    <polygon fill="white" stroke="black" stroke-width="20" points="0 256 0 0 256 0 256 256" />
    <path fill="black" d="M 53.829 101.046 C 53.829 160.6 54.205 167.27 58.432 179.575 C 67.262 205.219 86.518 218.37 118.174 220.531 C 130.48 221.282 146.355 220.343 155.091 218.182 C 158.566 217.431 165.236 214.894 169.838 212.64 C 186.841 204.468 196.516 190.378 201.025 167.27 C 202.152 161.446 202.528 148.671 202.903 102.455 L 203.373 44.967 L 158.19 44.967 L 157.909 102.455 C 157.627 159.943 157.627 160.037 155.466 165.297 C 152.93 171.591 146.261 178.354 140.625 180.327 C 135.834 182.017 120.241 182.017 115.45 180.327 C 110.284 178.542 104.178 172.624 101.83 167.176 C 98.448 159.191 97.978 151.395 97.978 97.288 L 97.978 44.967 L 53.829 44.967 L 53.829 101.046 Z" style=""/>
</svg>
